<svg height="48" viewBox="0 0 48 48" width="48" xmlns="http://www.w3.org/2000/svg"><path d="m0 0h48v48h-48z" fill="none"/><path d="m16 36a2 2 0 0 1 -2-2v-28a2 2 0 0 1 2-2 2 2 0 0 1 2 2v28a2 2 0 0 1 -2 2z"/><path d="m24 36a2 2 0 0 1 -2-2v-28a2 2 0 0 1 2-2 2 2 0 0 1 2 2v28a2 2 0 0 1 -2 2z"/><path d="m32 36a2 2 0 0 1 -2-2v-28a2 2 0 0 1 2-2 2 2 0 0 1 2 2v28a2 2 0 0 1 -2 2z"/><path d="m39.7 26a2.1 2.1 0 0 0 -1.7 2.1v11.9h-28v-11.9a2.1 2.1 0 0 0 -1.7-2.1 2 2 0 0 0 -2.3 2v14a2 2 0 0 0 2 2h32a2 2 0 0 0 2-2v-14a2 2 0 0 0 -2.3-2z"/><path d="m9.8 15.7-7.3-4.6c-.3-.2-.5-.1-.5.3v9.2c0 .4.2.5.5.3l7.3-4.6q.5-.3 0-.6z"/><path d="m45.8 15.7-7.3-4.6c-.3-.2-.5-.1-.5.3v9.2c0 .4.2.5.5.3l7.3-4.6q.5-.3 0-.6z"/></svg>